<svg width="18" height="18" viewBox="0 0 18 18" fill="none" xmlns="http://www.w3.org/2000/svg">
<path d="M17.25 4.28566C17.25 3.66051 17.0017 3.06096 16.5596 2.61891C16.1176 2.17686 15.518 1.92852 14.8929 1.92852H14.3036V1.35581C14.3036 1.0387 14.0598 0.76652 13.7426 0.750683C13.663 0.746844 13.5833 0.759222 13.5086 0.787066C13.4338 0.81491 13.3655 0.857642 13.3078 0.912671C13.25 0.967699 13.204 1.03388 13.1726 1.1072C13.1412 1.18052 13.125 1.25946 13.125 1.33923V1.92852H4.875V1.35581C4.875 1.0387 4.63118 0.76652 4.31407 0.750683C4.2344 0.746844 4.15477 0.759222 4.08002 0.787066C4.00527 0.81491 3.93695 0.857642 3.8792 0.912671C3.82145 0.967699 3.77547 1.03388 3.74405 1.1072C3.71264 1.18052 3.69644 1.25946 3.69643 1.33923V1.92852H3.10714C2.48199 1.92852 1.88244 2.17686 1.44039 2.61891C0.998341 3.06096 0.75 3.66051 0.75 4.28566V4.72762C0.75 4.7667 0.765521 4.80417 0.793149 4.8318C0.820778 4.85942 0.858249 4.87495 0.897321 4.87495H17.1027C17.1418 4.87495 17.1792 4.85942 17.2069 4.8318C17.2345 4.80417 17.25 4.7667 17.25 4.72762V4.28566ZM0.75 14.8928C0.75 15.518 0.998341 16.1175 1.44039 16.5596C1.88244 17.0016 2.48199 17.2499 3.10714 17.2499H14.8929C15.518 17.2499 16.1176 17.0016 16.5596 16.5596C17.0017 16.1175 17.25 15.518 17.25 14.8928V6.16401C17.25 6.1347 17.2384 6.1066 17.2176 6.08588C17.1969 6.06516 17.1688 6.05352 17.1395 6.05352H0.860491C0.831187 6.05352 0.803083 6.06516 0.782362 6.08588C0.761641 6.1066 0.75 6.1347 0.75 6.16401V14.8928ZM13.4196 7.23209C13.5945 7.23209 13.7654 7.28393 13.9107 7.38106C14.0561 7.47818 14.1694 7.61624 14.2363 7.77775C14.3032 7.93927 14.3207 8.117 14.2866 8.28846C14.2525 8.45993 14.1683 8.61743 14.0447 8.74105C13.9211 8.86467 13.7636 8.94885 13.5921 8.98296C13.4206 9.01707 13.2429 8.99956 13.0814 8.93266C12.9199 8.86576 12.7818 8.75246 12.6847 8.6071C12.5876 8.46174 12.5357 8.29084 12.5357 8.11602C12.5357 7.88158 12.6288 7.65675 12.7946 7.49098C12.9604 7.32522 13.1852 7.23209 13.4196 7.23209ZM13.4196 10.1785C13.5945 10.1785 13.7654 10.2304 13.9107 10.3275C14.0561 10.4246 14.1694 10.5627 14.2363 10.7242C14.3032 10.8857 14.3207 11.0634 14.2866 11.2349C14.2525 11.4064 14.1683 11.5639 14.0447 11.6875C13.9211 11.8111 13.7636 11.8953 13.5921 11.9294C13.4206 11.9635 13.2429 11.946 13.0814 11.8791C12.9199 11.8122 12.7818 11.6989 12.6847 11.5535C12.5876 11.4082 12.5357 11.2373 12.5357 11.0624C12.5357 10.828 12.6288 10.6032 12.7946 10.4374C12.9604 10.2716 13.1852 10.1785 13.4196 10.1785ZM10.4732 7.23209C10.648 7.23209 10.8189 7.28393 10.9643 7.38106C11.1097 7.47818 11.223 7.61624 11.2899 7.77775C11.3568 7.93927 11.3743 8.117 11.3402 8.28846C11.3061 8.45993 11.2219 8.61743 11.0982 8.74105C10.9746 8.86467 10.8171 8.94885 10.6457 8.98296C10.4742 9.01707 10.2965 8.99956 10.135 8.93266C9.97343 8.86576 9.83538 8.75246 9.73826 8.6071C9.64113 8.46174 9.58929 8.29084 9.58929 8.11602C9.58929 7.88158 9.68241 7.65675 9.84818 7.49098C10.014 7.32522 10.2388 7.23209 10.4732 7.23209ZM10.4732 10.1785C10.648 10.1785 10.8189 10.2304 10.9643 10.3275C11.1097 10.4246 11.223 10.5627 11.2899 10.7242C11.3568 10.8857 11.3743 11.0634 11.3402 11.2349C11.3061 11.4064 11.2219 11.5639 11.0982 11.6875C10.9746 11.8111 10.8171 11.8953 10.6457 11.9294C10.4742 11.9635 10.2965 11.946 10.135 11.8791C9.97343 11.8122 9.83538 11.6989 9.73826 11.5535C9.64113 11.4082 9.58929 11.2373 9.58929 11.0624C9.58929 10.828 9.68241 10.6032 9.84818 10.4374C10.014 10.2716 10.2388 10.1785 10.4732 10.1785ZM10.4732 13.1249C10.648 13.1249 10.8189 13.1768 10.9643 13.2739C11.1097 13.371 11.223 13.5091 11.2899 13.6706C11.3568 13.8321 11.3743 14.0099 11.3402 14.1813C11.3061 14.3528 11.2219 14.5103 11.0982 14.6339C10.9746 14.7575 10.8171 14.8417 10.6457 14.8758C10.4742 14.9099 10.2965 14.8924 10.135 14.8255C9.97343 14.7586 9.83538 14.6453 9.73826 14.5C9.64113 14.3546 9.58929 14.1837 9.58929 14.0089C9.58929 13.7744 9.68241 13.5496 9.84818 13.3838C10.014 13.2181 10.2388 13.1249 10.4732 13.1249ZM7.52679 10.1785C7.70161 10.1785 7.87251 10.2304 8.01787 10.3275C8.16323 10.4246 8.27653 10.5627 8.34343 10.7242C8.41033 10.8857 8.42784 11.0634 8.39373 11.2349C8.35962 11.4064 8.27544 11.5639 8.15182 11.6875C8.0282 11.8111 7.8707 11.8953 7.69923 11.9294C7.52777 11.9635 7.35004 11.946 7.18852 11.8791C7.027 11.8122 6.88895 11.6989 6.79183 11.5535C6.6947 11.4082 6.64286 11.2373 6.64286 11.0624C6.64286 10.828 6.73599 10.6032 6.90175 10.4374C7.06752 10.2716 7.29235 10.1785 7.52679 10.1785ZM7.52679 13.1249C7.70161 13.1249 7.87251 13.1768 8.01787 13.2739C8.16323 13.371 8.27653 13.5091 8.34343 13.6706C8.41033 13.8321 8.42784 14.0099 8.39373 14.1813C8.35962 14.3528 8.27544 14.5103 8.15182 14.6339C8.0282 14.7575 7.8707 14.8417 7.69923 14.8758C7.52777 14.9099 7.35004 14.8924 7.18852 14.8255C7.027 14.7586 6.88895 14.6453 6.79183 14.5C6.6947 14.3546 6.64286 14.1837 6.64286 14.0089C6.64286 13.7744 6.73599 13.5496 6.90175 13.3838C7.06752 13.2181 7.29235 13.1249 7.52679 13.1249ZM4.58036 10.1785C4.75518 10.1785 4.92608 10.2304 5.07144 10.3275C5.2168 10.4246 5.3301 10.5627 5.397 10.7242C5.4639 10.8857 5.48141 11.0634 5.4473 11.2349C5.41319 11.4064 5.32901 11.5639 5.20539 11.6875C5.08177 11.8111 4.92427 11.8953 4.7528 11.9294C4.58134 11.9635 4.40361 11.946 4.24209 11.8791C4.08058 11.8122 3.94252 11.6989 3.8454 11.5535C3.74827 11.4082 3.69643 11.2373 3.69643 11.0624C3.69643 10.828 3.78956 10.6032 3.95533 10.4374C4.12109 10.2716 4.34592 10.1785 4.58036 10.1785ZM4.58036 13.1249C4.75518 13.1249 4.92608 13.1768 5.07144 13.2739C5.2168 13.371 5.3301 13.5091 5.397 13.6706C5.4639 13.8321 5.48141 14.0099 5.4473 14.1813C5.41319 14.3528 5.32901 14.5103 5.20539 14.6339C5.08177 14.7575 4.92427 14.8417 4.7528 14.8758C4.58134 14.9099 4.40361 14.8924 4.24209 14.8255C4.08058 14.7586 3.94252 14.6453 3.8454 14.5C3.74827 14.3546 3.69643 14.1837 3.69643 14.0089C3.69643 13.7744 3.78956 13.5496 3.95533 13.3838C4.12109 13.2181 4.34592 13.1249 4.58036 13.1249Z" fill="#8DD3BB"/>
</svg>
