<svg width="16" height="18" viewBox="0 0 16 18" fill="none" xmlns="http://www.w3.org/2000/svg">
<path d="M11.187 12.9149L11.2029 12.9238L11.2155 12.9107C11.446 12.6696 11.723 12.4778 12.0297 12.3467C12.3364 12.2157 12.6665 12.1482 13.0001 12.1484C13.5173 12.1483 14.0216 12.3102 14.4422 12.6114C14.8627 12.9125 15.1784 13.3378 15.3449 13.8274C15.5115 14.3171 15.5206 14.8467 15.3708 15.3418C15.2211 15.8369 14.9201 16.2727 14.5101 16.588C14.1001 16.9034 13.6017 17.0824 13.0848 17.1C12.5678 17.1177 12.0583 16.973 11.6278 16.6864C11.1972 16.3997 10.8673 15.9855 10.6841 15.5017C10.501 15.018 10.4739 14.489 10.6067 13.9891L10.6114 13.9716L10.5956 13.9627L4.81432 10.71L4.79849 10.7011L4.78591 10.7142C4.44382 11.0709 4.00283 11.317 3.51967 11.421C3.03651 11.525 2.53329 11.4821 2.07474 11.2977C1.61618 11.1134 1.22328 10.7961 0.94656 10.3866C0.669843 9.97707 0.521973 9.49415 0.521973 8.99992C0.521973 8.5057 0.669843 8.02278 0.94656 7.61329C1.22328 7.2038 1.61618 6.88646 2.07474 6.70211C2.53329 6.51775 3.03651 6.47481 3.51967 6.57881C4.00283 6.68281 4.44382 6.92899 4.78591 7.28568L4.79849 7.29879L4.81432 7.28988L10.5956 4.03715L10.6114 4.02824L10.6067 4.01069C10.4521 3.43023 10.5144 2.81331 10.782 2.2755C11.0496 1.73769 11.5041 1.3159 12.0604 1.08914C12.6166 0.862388 13.2365 0.846225 13.8038 1.04368C14.3711 1.24114 14.847 1.63867 15.1422 2.1618C15.4375 2.68493 15.5319 3.29776 15.4077 3.88549C15.2836 4.47322 14.9494 4.99552 14.4678 5.35455C13.9862 5.71357 13.3902 5.88467 12.7915 5.83581C12.1928 5.78695 11.6324 5.52148 11.2154 5.08912L11.2028 5.07608L11.187 5.08497L5.40579 8.3377L5.38996 8.34661L5.39463 8.36416C5.50557 8.78074 5.50557 9.2191 5.39463 9.63569L5.38996 9.65324L5.40579 9.66215L11.187 12.9149Z" fill="black" stroke="#112211" stroke-width="0.046875"/>
</svg>
