<svg width="32" height="32" viewBox="0 0 32 32" fill="none" xmlns="http://www.w3.org/2000/svg">
<rect width="32" height="32" rx="4" fill="#EBF6F2"/>
<path d="M11.9576 9.95927C11.2426 9.24427 11.2426 8.08011 11.9576 7.36511C12.6726 6.65011 13.8367 6.65011 14.5517 7.36511C15.2667 8.08011 15.2667 9.24427 14.5517 9.95927C13.8276 10.6834 12.6726 10.6834 11.9576 9.95927ZM10.5001 19.6668V12.3334C10.5001 11.8293 10.0876 11.4168 9.58341 11.4168C9.07925 11.4168 8.66675 11.8293 8.66675 12.3334V19.6668C8.66675 22.1968 10.7201 24.2501 13.2501 24.2501H17.8334C18.3376 24.2501 18.7501 23.8376 18.7501 23.3334C18.7501 22.8293 18.3376 22.4168 17.8334 22.4168H13.2501C11.7284 22.4168 10.5001 21.1884 10.5001 19.6668ZM22.6734 22.7376L19.2176 19.2818C18.8784 18.9426 18.4109 18.7501 17.9251 18.7501H15.5417V15.3768C16.5409 16.1926 17.9801 16.9351 19.3917 17.2284C20.0059 17.3568 20.5834 16.8984 20.5834 16.2751C20.5834 15.7893 20.2259 15.3951 19.7401 15.3126C18.4384 15.0926 17.1001 14.3868 16.3026 13.5068L15.0192 12.0859C14.8451 11.8934 14.6251 11.7376 14.3867 11.6276C14.1209 11.4993 13.8184 11.4168 13.5067 11.4168H13.4792C12.3426 11.4168 11.4167 12.3426 11.4167 13.4793V18.7501C11.4167 20.2718 12.6451 21.5001 14.1667 21.5001H18.8142L21.3626 24.0484C21.7201 24.4059 22.3159 24.4059 22.6734 24.0484C23.0401 23.6909 23.0401 23.1043 22.6734 22.7376Z" fill="#8DD3BB"/>
</svg>
