<svg width="15" height="19" viewBox="0 0 15 19" fill="none" xmlns="http://www.w3.org/2000/svg">
<path d="M3.95734 3.95927C3.24234 3.24427 3.24234 2.08011 3.95734 1.36511C4.67234 0.650107 5.8365 0.650107 6.5515 1.36511C7.2665 2.08011 7.2665 3.24427 6.5515 3.95927C5.82734 4.68344 4.67234 4.68344 3.95734 3.95927ZM2.49984 13.6668V6.33344C2.49984 5.82927 2.08734 5.41677 1.58317 5.41677C1.079 5.41677 0.666504 5.82927 0.666504 6.33344V13.6668C0.666504 16.1968 2.71984 18.2501 5.24984 18.2501H9.83317C10.3373 18.2501 10.7498 17.8376 10.7498 17.3334C10.7498 16.8293 10.3373 16.4168 9.83317 16.4168H5.24984C3.72817 16.4168 2.49984 15.1884 2.49984 13.6668ZM14.6732 16.7376L11.2173 13.2818C10.8782 12.9426 10.4107 12.7501 9.92484 12.7501H7.5415V9.37677C8.54067 10.1926 9.97984 10.9351 11.3915 11.2284C12.0057 11.3568 12.5832 10.8984 12.5832 10.2751C12.5832 9.78928 12.2257 9.39511 11.7398 9.31261C10.4382 9.09261 9.09984 8.38677 8.30234 7.50677L7.019 6.08594C6.84484 5.89344 6.62484 5.73761 6.3865 5.62761C6.12067 5.49927 5.81817 5.41677 5.5065 5.41677H5.479C4.34234 5.41677 3.4165 6.34261 3.4165 7.47927V12.7501C3.4165 14.2718 4.64484 15.5001 6.1665 15.5001H10.814L13.3623 18.0484C13.7198 18.4059 14.3157 18.4059 14.6732 18.0484C15.0398 17.6909 15.0398 17.1043 14.6732 16.7376Z" fill="#8DD3BB"/>
</svg>
