<svg width="32" height="32" viewBox="0 0 32 32" fill="none" xmlns="http://www.w3.org/2000/svg">
<g clip-path="url(#clip0_188_10332)">
<path d="M1.28 5.95215C0.573216 5.95215 0 6.5252 0 7.23215V24.7681C0 25.4751 0.573504 26.0481 1.28 26.0481H30.72C31.4268 26.0481 32 25.4751 32 24.7681V7.23215C32 6.52524 31.4265 5.95215 30.72 5.95215H1.28ZM19.112 11.9411C19.8908 11.9411 20.515 12.1132 20.913 12.2731L20.641 13.9841L20.461 13.8931C20.0902 13.7332 19.614 13.5792 18.957 13.5901C18.1706 13.5901 17.807 13.9409 17.807 14.2692C17.8024 14.639 18.2318 14.8829 18.934 15.2481C20.0929 15.8117 20.6286 16.4949 20.621 17.3931C20.6054 19.0321 19.2347 20.0912 17.123 20.0912C16.2221 20.0812 15.3542 19.8905 14.885 19.6701L15.167 17.9021L15.426 18.0281C16.0858 18.3229 16.513 18.4422 17.317 18.4422C17.8944 18.4422 18.5141 18.2004 18.519 17.6712C18.5228 17.3256 18.26 17.0792 17.478 16.6921C16.716 16.3144 15.7058 15.6817 15.717 14.5472C15.7289 13.0124 17.127 11.9411 19.112 11.9411V11.9411ZM2.82998 12.1921H6.07299C6.5097 12.2087 6.86227 12.3493 6.984 12.8232L7.68301 16.4312C7.6831 16.4315 7.68288 16.4328 7.68301 16.4331L7.89299 17.5142L9.86198 12.1921H11.992L8.82598 19.9822L6.69798 19.9841L5.004 13.6981C6.01194 14.2321 6.87005 14.8499 7.36701 15.7001C7.23888 15.4311 7.07005 15.1274 6.85402 14.8281C6.60243 14.4796 6.0591 14.0296 5.832 13.8381C5.04064 13.171 3.96592 12.6322 2.80499 12.3472L2.82998 12.1921V12.1921ZM12.839 12.2011H14.922L13.619 19.9792H11.536L12.839 12.2011V12.2011ZM24.604 12.2011H26.182L27.834 19.9792H25.94C25.94 19.9792 25.7521 19.0856 25.691 18.8131C25.3933 18.8131 23.3113 18.8102 23.077 18.8102C22.9977 19.0207 22.647 19.9791 22.647 19.9791H20.504L23.535 12.8472C23.7496 12.3403 24.1154 12.2011 24.604 12.2011V12.2011ZM24.759 14.2931C24.6565 14.5825 24.478 15.0497 24.49 15.0291C24.49 15.0291 23.8488 16.7392 23.681 17.1832L25.366 17.1821C25.2095 16.4405 25.0528 15.6988 24.896 14.9572L24.759 14.2932V14.2931Z" fill="black"/>
</g>
<defs>
<clipPath id="clip0_188_10332">
<rect width="32" height="32" fill="white"/>
</clipPath>
</defs>
</svg>
